<svg width="64" height="64" viewBox="0 0 64 64" fill="none" xmlns="http://www.w3.org/2000/svg">
  <rect width="64" height="64" rx="12" fill="url(#paint0_linear)"/>
  <path d="M20 18H44C45.1046 18 46 18.8954 46 20V44C46 45.1046 45.1046 46 44 46H20C18.8954 46 18 45.1046 18 44V20C18 18.8954 18.8954 18 20 18Z" stroke="white" stroke-width="3"/>
  <path d="M26 26L38 26" stroke="white" stroke-width="3" stroke-linecap="round"/>
  <path d="M26 32L38 32" stroke="white" stroke-width="3" stroke-linecap="round"/>
  <path d="M26 38L34 38" stroke="white" stroke-width="3" stroke-linecap="round"/>
  <rect x="30" y="14" width="4" height="8" rx="2" fill="white"/>
  <rect x="30" y="42" width="4" height="8" rx="2" fill="white"/>
  <defs>
    <linearGradient id="paint0_linear" x1="0" y1="0" x2="64" y2="64" gradientUnits="userSpaceOnUse">
      <stop stop-color="#7C3AED"/>
      <stop offset="1" stop-color="#2563EB"/>
    </linearGradient>
  </defs>
</svg>
